<?xml version="1.0" standalone="no"?>
<!DOCTYPE svg PUBLIC "-//W3C//DTD SVG 20010904//EN"
 "http://www.w3.org/TR/2001/REC-SVG-20010904/DTD/svg10.dtd">
<svg version="1.0" xmlns="http://www.w3.org/2000/svg"
 width="199.000000pt" height="205.000000pt" viewBox="0 0 199.000000 205.000000"
 preserveAspectRatio="xMidYMid meet">

<g transform="translate(0.000000,205.000000) scale(0.100000,-0.100000)"
fill="#D9D9D9" stroke="none">
<path d="M272 1939 c-48 -14 -128 -95 -141 -144 -6 -23 -11 -134 -11 -267 l0
-228 875 0 875 0 0 241 0 241 -26 49 c-29 52 -80 93 -135 109 -45 13 -1392 12
-1437 -1z m568 -229 c17 -17 20 -33 20 -123 0 -157 17 -147 -260 -147 -277 0
-260 -10 -260 147 0 150 -14 143 260 143 207 0 221 -1 240 -20z m810 -40 l0
-30 -340 0 -340 0 0 30 0 30 340 0 340 0 0 -30z m0 -170 l0 -30 -340 0 -340 0
0 30 0 30 340 0 340 0 0 -30z"/>
<path d="M120 778 c0 -516 -1 -507 71 -575 69 -66 37 -63 808 -63 l699 0 53
28 c34 17 65 44 84 71 l30 43 3 479 3 479 -876 0 -875 0 0 -462z"/>
</g>
</svg>
