<?xml version="1.0" standalone="no"?>
<!DOCTYPE svg PUBLIC "-//W3C//DTD SVG 20010904//EN"
 "http://www.w3.org/TR/2001/REC-SVG-20010904/DTD/svg10.dtd">
<svg version="1.0" xmlns="http://www.w3.org/2000/svg"
 width="94.000000pt" height="93.000000pt" viewBox="0 0 94.000000 93.000000"
 preserveAspectRatio="xMidYMid meet">

<g transform="translate(0.000000,93.000000) scale(0.100000,-0.100000)"
fill="#5A5A5A" stroke="none">
<path d="M392 840 c-111 -23 -216 -98 -264 -187 -103 -194 -27 -434 168 -529
53 -25 70 -28 159 -29 93 0 105 2 167 33 83 41 158 120 189 200 34 86 32 207
-4 285 -33 73 -74 125 -125 161 -82 57 -202 84 -290 66z m6 -290 l60 -70 62
70 c54 61 64 68 82 59 18 -10 14 -16 -47 -85 l-67 -74 38 -46 c90 -106 89
-104 72 -120 -13 -13 -21 -7 -74 55 -32 38 -61 70 -64 70 -3 1 -32 -30 -64
-68 -51 -60 -61 -68 -77 -58 -22 13 -20 15 58 104 l52 59 -64 74 c-49 56 -61
77 -53 87 6 7 14 13 18 13 4 0 34 -31 68 -70z"/>
</g>
</svg>
