<svg xmlns="http://www.w3.org/2000/svg" width="684" height="343" viewBox="0 0 684 343" version="1.1"><path d="M 145.500 15.659 C 134.129 21.643, 130.029 33.646, 135.563 44.751 C 143.413 60.504, 165.605 60.468, 173.467 44.691 C 178.949 33.690, 174.890 21.618, 163.790 15.908 C 159.191 13.543, 149.766 13.414, 145.500 15.659 M 640.500 110.832 C 622.513 119.446, 624.543 145.693, 643.610 151.031 C 649.340 152.635, 654.926 151.819, 660.473 148.569 C 673.524 140.920, 674.008 121.562, 661.369 112.689 C 655.853 108.816, 646.456 107.980, 640.500 110.832 M 291.803 255.248 C 288.336 258.036, 283.587 261.167, 281.250 262.205 C 278.913 263.244, 277 264.411, 277 264.799 C 277 266.454, 292.438 283.066, 299.955 289.500 C 329.346 314.656, 362.027 327.914, 399 329.680 C 437.880 331.537, 476.198 318.577, 507.538 292.969 C 514.655 287.153, 529.152 272.404, 532.836 267.230 L 534.841 264.415 530.170 262.262 C 527.602 261.078, 522.800 257.913, 519.500 255.228 L 513.500 250.348 504.467 259.444 C 482.499 281.567, 454.703 296.566, 426.619 301.454 C 415.354 303.415, 394.791 303.441, 383.710 301.509 C 355.696 296.623, 328.336 281.576, 306.803 259.212 L 298.105 250.179 291.803 255.248" stroke="none" fill="#fc047c" fill-rule="evenodd"/><path d="M 254.983 99.750 C 254.964 189.719, 254.870 191.723, 250.170 202.349 C 244.331 215.550, 230.927 223.349, 214 223.395 C 194.266 223.449, 180.819 214.084, 174.757 196.062 C 172.598 189.646, 172.542 188.217, 172.222 131.750 L 171.895 74 154.448 74 L 137 74 136.985 129.750 C 136.969 191.157, 136.823 192.924, 130.826 204.175 C 125.233 214.669, 115.589 221.107, 102.383 223.163 C 84.225 225.990, 66.824 217.907, 59.514 203.251 C 54.078 192.352, 54.036 191.574, 54.017 100.250 L 54 16 36.460 16 L 18.919 16 19.253 105.250 C 19.584 194.060, 19.597 194.542, 21.833 203 C 25.564 217.109, 31.005 227.066, 39.837 235.943 C 47.792 243.939, 52.957 247.338, 62.742 251.013 C 80.236 257.585, 103.720 257.602, 121.146 251.055 C 132.514 246.784, 145.392 236.413, 151.692 226.454 L 154.417 222.147 157.627 226.913 C 171.204 247.073, 193.098 256.939, 221.590 255.736 C 242.406 254.857, 258.169 248.057, 270.873 234.477 C 280.504 224.181, 286.388 210.526, 288.961 192.500 C 289.563 188.284, 289.968 151.589, 289.980 100.250 L 290 15 272.500 15 L 255 15 254.983 99.750 M 523.241 108.250 L 523.559 201.500 525.848 208.984 C 533.059 232.563, 548.424 247.595, 571.500 253.643 C 581.275 256.206, 607.655 256.259, 617 253.735 C 645.975 245.910, 663.328 223.382, 664.747 191.750 L 665.275 180 648.137 180 L 631 180 630.985 185.250 C 630.965 192.336, 628.447 202.561, 625.472 207.638 C 622.040 213.494, 614.753 219.579, 608.671 221.667 C 601.667 224.071, 587.330 224.070, 580.322 221.665 C 569.109 217.815, 562.308 210.048, 559.556 197.944 C 558.258 192.239, 558 182.645, 558 140.053 L 558 89 606.500 89 L 655 89 655 73 L 655 57 606.500 57 L 558 57 558 36 L 558 15 540.461 15 L 522.922 15 523.241 108.250 M 396.500 70.088 C 356.901 73.671, 324.935 100.206, 315.524 137.308 C 309.564 160.801, 312.012 186.107, 322.213 206.467 C 335.302 232.591, 361.070 250.554, 391.903 255.050 C 403.168 256.692, 423.004 255.733, 434 253.014 C 451.113 248.783, 471.372 236.654, 481.058 224.840 C 495.652 207.040, 501.810 190.430, 502.688 166.500 C 503.462 145.411, 499.667 129.767, 489.586 112.500 C 484.663 104.066, 469.782 88.912, 461.766 84.169 C 442.583 72.820, 420.046 67.957, 396.500 70.088 M 391.216 104.019 C 369.989 109.580, 354.436 125.328, 349.502 146.255 C 347.569 154.453, 347.576 171.912, 349.515 179.540 C 356.431 206.747, 378.373 223.341, 407.500 223.394 C 425.743 223.427, 438.921 218.290, 450.583 206.600 C 478.847 178.267, 471.425 125.789, 436.729 108.646 C 423.171 101.947, 405.847 100.185, 391.216 104.019" stroke="none" fill="#545454" fill-rule="evenodd"/></svg>