<?xml version="1.0" standalone="no"?>
<!DOCTYPE svg PUBLIC "-//W3C//DTD SVG 20010904//EN"
 "http://www.w3.org/TR/2001/REC-SVG-20010904/DTD/svg10.dtd">
<svg version="1.0" xmlns="http://www.w3.org/2000/svg"
 width="119.000000pt" height="103.000000pt" viewBox="0 0 119.000000 103.000000"
 preserveAspectRatio="xMidYMid meet">

<g transform="translate(0.000000,103.000000) scale(0.100000,-0.100000)"
fill="#D9D9D9" stroke="none">
<path d="M341 806 c-31 -17 -50 -53 -51 -94 0 -69 42 -111 111 -112 58 0 95
27 109 80 13 47 -4 98 -41 124 -28 19 -95 20 -128 2z"/>
<path d="M698 724 c-76 -41 -74 -159 2 -199 102 -53 208 53 155 155 -28 54
-101 75 -157 44z"/>
<path d="M288 553 c-43 -27 -48 -52 -48 -238 l0 -175 155 0 155 0 0 170 c0
183 -6 212 -52 244 -32 23 -173 22 -210 -1z"/>
<path d="M653 475 c-53 -23 -63 -57 -63 -205 l0 -130 155 0 155 0 0 129 c0 71
-4 141 -10 155 -16 43 -66 66 -140 66 -36 -1 -79 -7 -97 -15z"/>
</g>
</svg>
