<?xml version="1.0" standalone="no"?>
<!DOCTYPE svg PUBLIC "-//W3C//DTD SVG 20010904//EN"
 "http://www.w3.org/TR/2001/REC-SVG-20010904/DTD/svg10.dtd">
<svg version="1.0" xmlns="http://www.w3.org/2000/svg"
 width="91.000000pt" height="94.000000pt" viewBox="0 0 91.000000 94.000000"
 preserveAspectRatio="xMidYMid meet">

<g transform="translate(0.000000,94.000000) scale(0.100000,-0.100000)"
fill="#EE4296" stroke="none">
<path d="M318 851 c-140 -56 -239 -189 -255 -341 -13 -125 39 -264 128 -344
197 -177 483 -119 601 122 32 64 33 72 33 182 0 104 -3 121 -27 172 -35 76
-104 148 -181 189 -56 30 -71 34 -157 36 -75 3 -105 -1 -142 -16z m252 -201
l0 -30 -84 0 c-78 0 -84 -1 -90 -22 -15 -58 -11 -63 65 -75 85 -13 118 -39
126 -100 15 -110 -106 -170 -240 -119 -49 18 -56 30 -34 59 11 16 14 16 52 -3
55 -28 110 -26 140 5 32 31 32 58 -1 84 -22 17 -41 21 -102 21 l-75 0 7 97 c4
54 10 101 12 105 3 4 54 8 115 8 l109 0 0 -30z"/>
</g>
</svg>
