<?xml version="1.0" standalone="no"?>
<!DOCTYPE svg PUBLIC "-//W3C//DTD SVG 20010904//EN"
 "http://www.w3.org/TR/2001/REC-SVG-20010904/DTD/svg10.dtd">
<svg version="1.0" xmlns="http://www.w3.org/2000/svg"
 width="221.000000pt" height="212.000000pt" viewBox="0 0 221.000000 212.000000"
 preserveAspectRatio="xMidYMid meet">

<g transform="translate(0.000000,212.000000) scale(0.100000,-0.100000)"
fill="#D9D9D9" stroke="none">
<path d="M925 2046 c-348 -67 -633 -317 -743 -649 -180 -542 141 -1111 705
-1249 129 -31 313 -29 443 5 335 87 591 329 693 653 165 523 -148 1085 -683
1224 -107 28 -311 36 -415 16z m235 -451 l0 -225 -30 0 -30 0 0 225 0 225 30
0 30 0 0 -225z m-310 -500 l0 -35 -220 0 -220 0 0 35 0 35 220 0 220 0 0 -35z
m1000 0 l0 -35 -220 0 -220 0 0 35 0 35 220 0 220 0 0 -35z m-690 -505 l0
-220 -30 0 -30 0 0 220 0 220 30 0 30 0 0 -220z"/>
</g>
</svg>
