<?xml version="1.0" standalone="no"?>
<!DOCTYPE svg PUBLIC "-//W3C//DTD SVG 20010904//EN"
 "http://www.w3.org/TR/2001/REC-SVG-20010904/DTD/svg10.dtd">
<svg version="1.0" xmlns="http://www.w3.org/2000/svg"
viewBox="0 0 75.000000 99.000000"
 preserveAspectRatio="xMidYMid meet">

<g transform="translate(0.000000,99.000000) scale(0.100000,-0.100000)"
 stroke="none">
<path d="M304 871 c-44 -27 -70 -96 -55 -144 37 -111 186 -125 235 -22 21 44
20 83 -4 122 -37 61 -116 81 -176 44z"/>
<path d="M221 593 c-65 -32 -71 -54 -71 -275 l0 -198 220 0 220 0 0 204 c0
193 -1 205 -22 231 -34 44 -75 55 -200 55 -85 0 -121 -5 -147 -17z"/>
</g>
</svg>
